<?xml version="1.0" encoding="utf-8"?>
<svg version="1.1" xmlns="http://www.w3.org/2000/svg" xmlns:xlink="http://www.w3.org/1999/xlink" x="0px" y="0px"
    width="1958" height="585" viewBox="0 0 1958 585" style="enable-background:new 0 0 1958 585;" xml:space="preserve"
    data-tags="ruckus logo" aria-labelledby="title desc" role="img">
  <title id="title">the Ruckus logo</title>
  <desc id="desc">a stylized barking dog (showing lines for the bark) wearing a collar, standing next to the word "Ruckus", trademarked. Text beneath reads "An ARRIS Company".</desc>
  <style type="text/css">
  	.ko{fill:#FFFFFF;}
  	.brand{fill:#E87424;}
  </style>
  <g id="ruckus">
  	<polygon class="ko" points="1936.6,177.8 1920.3,220.7 1904,177.8 1882.5,177.8 1882.5,243 1897.7,243 1897.7,196.8 1897.9,196.8
  		1914.8,243 1925.7,243 1942.4,196.8 1942.8,196.8 1942.8,243 1958,243 1958,177.8 	"/>
  	<polygon class="ko" points="1820.9,190.6 1839.4,190.6 1839.4,243 1855.6,243 1855.6,190.6 1874,190.6 1874,177.8 1820.9,177.8
  		"/>
  	<polygon class="ko" points="1315.9,325.4 1403.5,230.9 1360.7,230.7 1273,325.4 1370.9,441.8 1412.3,441.8 	"/>
  	<path class="ko" d="M941.7,358.1c-1.4,29.4-26.3,52.1-55.7,50.7c-27.5-1.3-49.5-23.3-50.7-50.7V231.4h-34.1v126.6
  		c0,48,38.9,86.9,87,86.9c48,0,86.9-38.9,86.9-86.9V231.4h-34.1L941.7,358.1z"/>
  	<path class="ko" d="M1111.7,263.5c23.4,0.3,45.3,11.5,59,30.4l31.7-13.3c-19.5-31.6-53.9-50.9-91-51h-4.7
  		c-59.3,4.3-104,55.9-99.6,115.3c3.9,53.3,46.3,95.8,99.6,99.6h4.7c37.1-0.1,71.6-19.3,91-51l-31.7-12.9
  		c-13.9,19.1-36.1,30.4-59.7,30.5h-2.5c-40.8-0.7-73.4-34.4-72.6-75.3c0.7-40.8,34.4-73.4,75.3-72.6L1111.7,263.5z"/>
  	<rect x="1238.7" y="230.3" class="ko" width="34" height="211.1"/>
  	<path class="ko" d="M1576.6,358.1c-1.4,29.4-26.3,52.1-55.6,50.7c-27.5-1.3-49.5-23.3-50.7-50.7V230.5h-34.1v127.4
  		c-0.1,48,38.8,87,86.8,87c0.2,0,0.4,0,0.6,0l0,0c48,0,86.9-38.9,86.9-86.9V230.5h-34.1L1576.6,358.1z"/>
  	<path class="ko" d="M762.2,291.5L762.2,291.5c0-39-31.7-60.8-71-60.8h-97.6v210.7h34.1v-73.8l0,0c0,0,0-43.3,0-43.1v-33.2l0,0
  		v-29.1h63.6c23.9,0,41.9,9.1,41.9,29.4c0,23.9-17.7,32.9-41.8,32.9h-63.7l29,36.6l65.1,80.8h45.5l-70.5-83.6
  		c34.8,1.4,64.1-25.7,65.5-60.5C762.4,295.6,762.3,293.6,762.2,291.5z"/>
  	<path class="ko" d="M1727.3,321.5c-12.5-3-24.4-8.1-35.2-15c-6.7-4.5-10.6-12.1-10.6-20.1c-0.2-8.3,3.3-16.3,9.7-21.7
  		c7.8-6.1,17.6-9.1,27.5-8.4c10.8-0.5,21.3,3,29.6,9.9c7.5,6.7,11.7,16.4,11.4,26.5h34.1v-0.9c0.7-17.4-6.6-34.2-19.8-45.5
  		c-15.3-12.8-34.9-19.3-54.8-18.3c-18.8-0.8-37.3,5-52.2,16.5c-13.1,10-20.6,25.6-20.4,42.1c-0.5,15.5,6.4,30.4,18.5,40
  		c15.6,11.8,33.5,20.3,52.6,24.8c12,2.5,23.4,7.5,33.3,14.7c6.2,5.5,9.6,13.4,9.3,21.6c0.3,8.4-3.6,16.4-10.4,21.4
  		c-8.6,5.8-18.8,8.6-29.1,8c-11.4,0.3-22.6-3.1-32-9.7c-9.1-6.7-14.2-17.6-13.5-28.9h-34.1v0.9c-1.4,19,7.2,37.3,22.8,48.4
  		c16.4,11.6,36.1,17.6,56.2,17.2c19.3,0.9,38.3-4.6,54.2-15.7c13.4-9.7,21.1-25.4,20.6-42c0.5-15.5-5.9-30.5-17.4-41
  		C1762.9,334.2,1745.7,325.8,1727.3,321.5z"/>
  </g>
  <g id="bark">
  	<path class="brand" d="M677,96.6l11.4-6.5c4.6-2.8,6.1-8.8,3.4-13.4c0,0,0-0.1-0.1-0.1l0,0c-2.8-4.5-8.7-6-13.3-3.3L667,80.1h-0.7
  		l-84.9,59.4l94.7-42.9H677z"/>
  	<path class="brand" d="M686.8,126l-99.1,29.4L691.1,145h1l12.5-2.6c5.2-1.5,8.2-6.9,6.8-12.1c-1.3-4.7-5.9-7.7-10.8-7.1l-13.1,2.7
  		H686.8z"/>
  	<path class="brand" d="M702.7,176l-13.3-1.7h-0.8l-103.3-4.4l101.1,23.8h1l12.7,1.6c5.3,0.9,10.4-2.7,11.3-8c0-0.2,0.1-0.5,0.1-0.7
  		l0,0C712,181.2,708,176.5,702.7,176z"/>
  </g>
  <g id="dog">
  	<path class="ko" d="M530.7,115.5c0,0,26.4-12.6,52.7-26.6c26.4-14,10.8-34.1,2.8-36c-14.1,0.2-28.1,1.8-41.9,4.5
  		c-20.6,3.6-41.4,5.8-62.3,6.8c-14.6,1.4-28.6-6.2-35.6-19.1c0,0-12.3-22.7-17.4-34.1C424-0.3,421.3-2,412.5,1.9
  		c-7,3.3,3.8,28.3,3.8,28.3s6.4,15.6,9.4,22.7s4,12.7-2.6,15.7c-6.6,3-11.4-9.3-11.4-9.3l-10.6-21.3c0,0-6.3-11.4-8.4-13.9
  		c-5.6-7.5-37.4,6.8-40.4,15c-1.8,5.1,5,25.1,22.7,9.2c1.9-1.8,2.3,1.4,2.8,2.6c2.7,6.3,5.5,12.8,7.2,16.8
  		c-0.3,10.1,1.2,20.2,4.5,29.8c-1.7,4.2-8.8,7.2-13,10.8c-4,3.3-8.2,6.3-12.7,8.9l0,0l-6.8,4l0,0h-0.9l0,0
  		c-4.9,6.7,7.7,29.4,29.2,50.6c18.1,17.8,37.1,30.2,46,30.5c1.6,0.2,3.1-0.3,4.3-1.4c0.3-0.3,0.5-0.7,0.7-1.1v-1c0-0.3,0-0.6,0-0.9
  		l0.7-1.8l0,0c0.8-2.2,1.8-4.3,3-6.4c5.7-7.8,15.5-11.4,24.9-9.1c26.3,9.2,65.4,43,70.9,44c7.7,1.6,15.6-2.3,19-9.4
  		c2.7-6-2-13-3.3-15.2c-1.3-2.3-9.1-12.4-9.1-12.4l-18.9-21.1c0,0-18.6-18.3-19-28.8C504.2,130.4,530.7,115.5,530.7,115.5z"/>
  	<path class="ko" d="M373.1,184.8l-3-3c-2.5-2.6-5.2-5.3-8-8.4l0,0l-1.7-1.8l-1.6-1.8l0,0c-10.3-10.7-17.8-23.9-21.6-38.3l0,0l0,0
  		l0,0c-7.6,3-34.8,9.7-43.7,12.8c-12.6,3.8-25.6,6.1-38.8,6.8c-21-0.7-41.9-2.5-62.7-5.5c-10.4-0.9-20.8-0.5-31,1.1
  		c-15.8,4.1-31,9.9-45.5,17.4c-21.7,9.4-46.2,9.8-68.2,1.3c-43.1-15.2-37.3-68.2-40.8-67S-4.7,128,3.9,151.4
  		c3.3,8.1,7.9,15.5,13.8,22.1c7.3,7.2,16.1,12.7,25.8,16c4.7,1.8,9.6,3.2,14.6,4.2c6.9,2,13.3,5.3,19,9.8c5.6,4.7,9,11.4,8.1,14
  		c-9.8,27.2-11.9,56.6-5.9,84.9c1.1,35.5-22.7,250.1-22.1,252.2c-0.4,1.7-0.4,3.5,0,5.2c2,3,4.2,5.9,6.6,8.6c2.7,4,3.8,9.3,8.2,9.9
  		c18.5,2.4,28.2,0,26.8-13.5c-0.4-3.5-2.4-6.6-5.3-8.4c-3.4-2-9.1-2.5-11.4-5.7c-3.6-5.6-4.9-12.4-3.5-18.9c3-20.1,8.4-56,12.2-80.3
  		c3.2-15.4,8-30.4,14.4-44.7c14.8-28.1,27.6-57.1,38.4-87c1-2.5,3.7-3.7,6.2-2.7c2,0.8,3.2,2.8,3,4.9c-1,6-2.8,11.7-5.5,17.2
  		c-1.3,1.6-2,3.6-1.9,5.7c0,22.1,8.3,119.1,7.7,137.5c-0.7,23.6-1.3,38.9-2.4,47.1c0,3.3,5.6,10,9.7,13.4c4.1,3.4,5.6,8.2,7.2,8.4
  		c5.5,0.5,11.1,0.5,16.6,0c6.3-0.6,11.4-2.5,12.4-4.3c0-4.5-1.3-9-3.8-12.7c-4-3.4-8.5-6.1-13.3-8.2c-6.9-3.2-6.3-40.9-6.3-40.9
  		l14.6-106.2c0,0,32.1-67,51.5-75.8c22-5.2,44.7-6.1,67.1-2.7c22.9,8.1,40.1,27.3,45.5,51c8.6,37.6,20.1,154.6,23.9,193.3
  		c0.1,4.7,1.1,9.4,2.8,13.8c2,1.5,8.6,3.8,9.7,8.4c1,4.7,1.9,9.8,6.8,12c3.4,0,8.8,1,16.8,0.9c4.9,0,10.2,0,12.7-2.5
  		c0.6-3.5,0.6-7,0-10.5c-0.2-1.2-0.6-2.4-1.3-3.4c-1.8-3.3-4.5-5.9-7.8-7.5c-2.8-1.1-7.3-1.6-10-2.8c-1.5-1.3-2.8-2.8-3.8-4.4
  		c-6.1-14.2-9.9-29.2-11.4-44.6c-7.3-42.5,9.3-182.7,10.2-192.5c2.5-2.6,4.8-5.3,6.9-8.2l1.4-1.8c2,11.4,0,28.6,3,47.5
  		c2.3,15.5,5.1,32.2,8,48.2c6.6,37.5,15.5,135.2,22.7,140.8c0,0,4.8,0.8,5,1.7c0.8,3.1,0,10.1,2,11.4c12.6,3,25.9,3.3,30.8-1.9
  		c1.7-1.9,1-7.8,1.1-11.4c-0.1-2.9-1.7-5.5-4.2-6.9c-3.2-2-9.2-1.4-12.2-3.9c-3-2.5-2.3-3.8-3.5-7.3c-8.9-24.7-10-73.3-12.5-97.8
  		c-2.7-26.8-3.9-53.8-3.4-80.8c0.7-29.6,4.7-54.8,0-75.5c-2.7-15.4-7.5-30.4-14.3-44.6c0,0,0,0,0-1.3h-0.5
  		C410.3,219,383.7,195,373.1,184.8z"/>
  </g>
  <path id="collar" class="brand" d="M437.9,198.1c0,0.3,0,0.6,0,0.9v1c-0.2,0.4-0.4,0.8-0.7,1.1c-1.2,1-2.8,1.5-4.3,1.4
  	c-9.1,0-28-12.6-46.1-30.5c-22.5-21.2-35.2-43.9-30.2-49.5l0,0h0.9l0,0l6.8-4l0,0c-2.6-1.7-5.7-2.5-8.8-2.3
  	c-4.8,2.1-9.5,4.6-13.9,7.5c-3.5,2.8-5.3,5.2-5.2,7.3l0,0l0,0c3.8,14.4,11.3,27.6,21.6,38.3l0,0l1.6,1.8l1.7,1.8l0,0
  	c2.7,3,5.3,5.8,8,8.4l3,3c10.5,10.4,37.2,34.1,57.7,35.2h3.3c3.1-1.3,3.4-3.1,3.4-3.1c1.3-5.1,2.3-10.3,3-15.5
  	c-0.2-1.8-1-3.5-2.3-4.8l0,0L437.9,198.1z"/>
  <g id="tagline">
  	<path class="brand" d="M621.4,562.4l-3.4-6.9l0,0c-1.9,2.6-4.5,4.7-7.4,6.1c-3.1,1.2-6.4,1.8-9.8,1.7c-4.2,0.2-8.4-1.4-11.4-4.4
  		c-3-3.4-4.5-7.9-4.2-12.4c-0.4-4.7,1.6-9.4,5.3-12.3c5-3,10.8-4.6,16.7-4.6h8.6v-0.7c0.4-3.1-1.8-6-4.9-6.4c-0.5-0.1-1-0.1-1.5,0
  		c-5,0-9.9,1-14.4,3l-5.2-11.4c7.1-3.3,14.9-4.9,22.8-4.7c5.6-0.3,11.1,1.5,15.5,5c3.8,3.6,5.8,8.7,5.5,13.9v34.1L621.4,562.4z
  		 M608.1,551c2-0.2,3.9-1.2,5.2-2.7c1.5-1.4,2.4-3.3,2.3-5.3v-3.8h-4.1c-5.9,0-8.9,2.2-8.9,6.5c0,4.3,1.8,6,5.5,5V551z"/>
  	<path class="brand" d="M699.5,562.4V534c0.2-2.7-0.3-5.4-1.5-7.9c-1-1.7-2.8-2.7-4.8-2.6c-2.7-0.2-5.3,1.2-6.6,3.6
  		c-1.6,3.9-2.3,8.2-2,12.4v22.8h-17.9v-52h13.5l2.3,6.4h1c1.5-2.4,3.7-4.3,6.4-5.5c2.9-1.3,6.1-1.9,9.3-1.8c5-0.3,9.9,1.5,13.4,5
  		c3.4,3.9,5.1,9,4.8,14.1v34.1L699.5,562.4z"/>
  	<path class="brand" d="M837.8,562.4l-3.3-12.6h-21.8l-3.4,12.6h-19.9l21.8-67.4h24.2l22.2,67.4H837.8z M830.7,534.9l-2.8-11.4
  		c-0.7-2.4-1.5-5.6-2.5-9.6c-0.9-3.9-1.6-6.7-1.9-8.3c0,1.6-0.5,4.2-1.6,7.7c-1.1,3.6-2.8,10.6-5.3,21.2L830.7,534.9z"/>
  	<path class="brand" d="M903.6,538v24.5h-18.1v-67.1h22c18.2,0,27.3,6.6,27.3,19.8c0.1,7.7-4.4,14.8-11.4,18.1l19.8,29.1h-20.8
  		L908.2,538H903.6z M903.6,524.4h3.4c6.4,0,9.6-2.8,9.6-8.4c0-5.6-3.1-7.9-9.3-6.9h-3.5L903.6,524.4z"/>
  	<path class="brand" d="M988,538v24.5h-18.1v-67.1h22c18.2,0,27.3,6.6,27.3,19.8c0.1,7.7-4.4,14.8-11.4,18.1l19.6,29.2h-20.6
  		L992.5,538L988,538z M988,524.4h3.4c6.4,0,9.6-2.8,9.6-8.4c0-5.6-3.1-7.9-9.3-6.9h-3.5L988,524.4z"/>
  	<path class="brand" d="M1054.1,562.4v-67.1h18.2v67.1H1054.1z"/>
  	<path class="brand" d="M1151.5,542c0.1,4-1,8-3.2,11.4c-2.2,3.3-5.4,5.9-9.1,7.5c-4.4,1.9-9.2,2.8-14,2.7c-3.8,0.1-7.6-0.2-11.4-0.9
  		c-3.3-0.7-6.4-1.8-9.4-3.3v-16.5c3.4,1.8,7.1,3.2,10.8,4.2c3.3,0.9,6.8,1.4,10.2,1.5c2.1,0.2,4.1-0.3,5.9-1.4
  		c1.2-0.8,1.9-2.2,1.9-3.6c0-0.9-0.3-1.7-0.8-2.4c-0.7-0.8-1.5-1.5-2.4-2c-1.1-0.7-4.1-2.2-8.9-4.3c-3.5-1.5-6.9-3.4-9.9-5.8
  		c-2.1-1.7-3.8-3.9-4.9-6.4c-1.1-2.7-1.7-5.6-1.6-8.5c-0.3-5.6,2.2-11,6.7-14.4c5.4-3.7,12-5.6,18.5-5.2c7.3,0.1,14.6,1.7,21.3,4.8
  		l-5.6,14c-5.1-2.6-10.6-4-16.3-4.3c-1.8-0.1-3.6,0.3-5.1,1.3c-1,0.7-1.6,1.8-1.6,3.1c0.1,1.4,0.8,2.8,2,3.5
  		c3.6,2.2,7.4,4.1,11.4,5.7c4.6,1.8,8.8,4.7,12.1,8.4C1150.5,534.1,1151.6,538,1151.5,542z"/>
  	<path class="brand" d="M1250.4,563.3c-7.1,0.5-14.1-2-19.3-6.9c-4.7-5.4-7.2-12.3-6.8-19.5c-0.4-7.4,2.1-14.6,7.2-20
  		c5.5-5,12.8-7.6,20.3-7.2c5.9,0,11.8,1.3,17.1,4l-5.2,13.3c-2-0.9-4-1.6-6-2.3c-1.8-0.5-3.8-0.8-5.7-0.8c-2.7-0.1-5.2,1.2-6.7,3.4
  		c-1.8,2.9-2.6,6.2-2.4,9.6c0,8.3,3.1,12.5,9.2,12.5c5.4,0,10.6-1.6,15.1-4.6v14.2C1262,562.1,1256.3,563.5,1250.4,563.3z"/>
  	<path class="brand" d="M1347.5,536.3c0.5,7.3-2,14.4-6.8,19.9c-5.1,5-12.1,7.6-19.2,7.2c-7,0.4-13.9-2.3-18.9-7.3
  		c-9.2-11.5-9.2-27.9,0-39.5c5.1-4.9,12.1-7.5,19.2-7.1c4.7-0.1,9.4,1.1,13.5,3.3c3.9,2.2,7,5.4,9.1,9.3
  		C1346.6,526.6,1347.6,531.4,1347.5,536.3z M1313.4,536.3c-0.2,3.5,0.4,7,1.8,10.2c1.1,2.3,3.5,3.7,6,3.5c2.5,0.2,4.9-1.2,5.9-3.5
  		c1.3-3.2,1.9-6.7,1.7-10.2c0.2-3.4-0.4-6.8-1.7-10c-2.2-3.1-6.5-3.9-9.7-1.7c-0.7,0.5-1.2,1-1.7,1.7c-1.4,3.1-2.1,6.6-1.9,10
  		H1313.4z"/>
  	<path class="brand" d="M1442.3,562.4v-28.2c0.2-2.7-0.3-5.5-1.5-8c-0.9-1.7-2.7-2.7-4.6-2.6c-2.5-0.1-4.9,1.3-6,3.5
  		c-1.6,3.6-2.2,7.5-1.9,11.4v24.2h-18v-28.6c0.2-2.7-0.3-5.5-1.4-8c-0.8-1.7-2.6-2.7-4.4-2.6c-2.6-0.1-5,1.4-6.1,3.8
  		c-1.5,3.9-2.2,8.1-1.9,12.3v22.8h-18v-52h13.5l2.3,6.4h1c1.4-2.4,3.5-4.3,6-5.5c2.8-1.3,5.8-2,8.9-1.9c6.1-0.7,12.1,1.9,15.8,6.8
  		h1.5c1.6-2.2,3.7-3.9,6.1-5c2.7-1.2,5.7-1.9,8.6-1.8c5-0.4,10,1.3,13.7,4.8c3.2,4,4.8,9.2,4.4,14.3v34.1L1442.3,562.4z"/>
  	<path class="brand" d="M1524.3,563.3c-5.1,0.2-10.1-2-13.3-6h-0.8c0.4,2.3,0.6,4.5,0.8,6.8V585h-18v-74.6h14.6l2.5,6.6h0.8
  		c2.9-4.8,8.2-7.6,13.8-7.5c5.5-0.1,10.6,2.6,13.5,7.2c3.6,5.9,5.3,12.8,4.9,19.7c0.4,7-1.4,13.9-5.1,19.8
  		C1534.9,560.6,1529.8,563.3,1524.3,563.3z M1518.3,523.6c-2.3-0.2-4.4,0.9-5.6,2.8c-1.2,2.6-1.8,5.5-1.7,8.4v1.5
  		c-0.2,3.3,0.4,6.7,1.8,9.7c1.2,2,3.4,3.1,5.7,3c2.1,0.1,4.1-1.1,5-3c1.2-3.1,1.8-6.4,1.6-9.8c0.2-3.3-0.3-6.6-1.6-9.7
  		c-1-1.9-3-3.1-5.1-3H1518.3z"/>
  	<path class="brand" d="M1608.1,562.4l-3.4-6.9l0,0c-1.9,2.6-4.5,4.7-7.4,6.1c-3.1,1.2-6.4,1.8-9.8,1.7c-4.2,0.2-8.4-1.4-11.4-4.4
  		c-3-3.4-4.5-7.9-4.2-12.4c-0.3-4.9,1.9-9.5,5.8-12.4c5-3,10.8-4.6,16.7-4.6h8.6v-0.7c0.4-3.1-1.8-6-4.9-6.4c-0.5-0.1-1-0.1-1.5,0
  		c-5,0.3-9.9,1.6-14.4,3.9l-5.2-11.4c7.1-3.3,14.9-4.9,22.8-4.7c5.6-0.3,11.1,1.5,15.5,5c3.8,3.6,5.8,8.7,5.5,13.9v34.1
  		L1608.1,562.4z M1594.8,551c2.1,0.1,4-0.7,5.6-2c1.5-1.4,2.4-3.3,2.3-5.3v-4.4h-4.1c-5.9,0-8.9,2.2-8.9,6.5c0,4.3,1.7,6,5.1,5V551z
  		"/>
  	<path class="brand" d="M1686.3,562.4V534c0.2-2.7-0.3-5.4-1.5-7.9c-1-1.7-2.8-2.7-4.8-2.6c-2.7-0.2-5.3,1.2-6.6,3.6
  		c-1.6,3.9-2.3,8.2-2,12.4v22.8h-18v-52h13.5l2.3,6.4h1c1.5-2.4,3.7-4.3,6.4-5.5c2.9-1.3,6.1-1.9,9.3-1.8c5-0.3,9.9,1.5,13.4,5
  		c3.4,3.9,5.1,9,4.8,14.1v34.1L1686.3,562.4z"/>
  	<path class="brand" d="M1730.9,510.4h18.9l8.8,29.8c0.5,1.9,0.8,3.8,0.9,5.7l0,0c0.2-1.9,0.6-3.8,1.1-5.6l9-29.9h18.3l-20.6,55.3
  		c-1.8,5.8-5.1,10.9-9.7,14.9c-4.4,3.1-9.7,4.6-15,4.3c-2.5,0-5-0.3-7.4-0.8v-14c1.9,0.2,3.7,0.2,5.6,0c1.5,0,2.9-0.3,4.2-0.9
  		c1.2-0.6,2.2-1.5,3.1-2.6c1.2-1.7,2.1-3.5,2.8-5.5L1730.9,510.4z"/>
  </g>
</svg>
